<svg xmlns="http://www.w3.org/2000/svg" width="274" height="224" fill="none" viewBox="0 0 274 224">
  <path fill="#FAFAFA" fill-rule="evenodd" d="M122.858 13.855c6.65 6.2799 8.899 17.5418 3.204 35.425-5.498 17.2694-17.873 30.6455-31.4524 39.8199-13.5541 9.1575-28.5509 14.2941-39.6172 14.8831l-.3145.017-.3073-.069c-10.6445-2.407-23.0717-10.8656-32.268-20.2173-4.6246-4.7028-8.547-9.7454-11.0667-14.534-2.4708-4.6955-3.8219-9.5868-2.548-13.7407 2.0558-6.7038 8.8563-9.359 16.5306-9.3337 7.2434.0239 16.0477 2.3595 24.858 6.7143.9039-1.6441 1.9112-3.4256 3.0263-5.3624 5.1003-8.8583 12.1597-17.6187 20.1296-24.6145 7.9485-6.977 16.9512-12.3278 25.9553-14.1288 7.5583-1.5117 17.3863-.9832 23.8703 5.1411ZM47.7383 56.831c-1.8661 3.6401-3.077 6.4776-3.7098 8.8161-.5639 2.0839-.7104 3.9075-.383 5.6317.3276 1.7256 1.093 3.1527 2.0287 4.4823 1.2117 1.722 3.0899 2.794 5.0219 3.3346 1.9477.5449 4.1258.6048 6.1802.1435 2.0577-.4619 4.0957-1.4727 5.6344-3.1721 1.5661-1.7298 2.4963-4.0454 2.4963-6.8558 0-4.2946-2.9108-7.8303-5.6366-10.2565-1.8736-1.6676-3.9006-3.0239-5.4925-3.9805.8718-1.5856 1.856-3.3284 2.9624-5.25 4.8605-8.4419 11.6064-16.8108 19.1894-23.467 7.6043-6.6749 15.902-11.4986 23.8491-13.0881 6.9452-1.3892 14.9422-.6555 19.8602 3.989 4.753 4.4887 7.484 13.5019 1.994 30.7433-5.104 16.0299-16.67 28.6525-29.667 37.4336-12.8865 8.7065-26.941 13.4742-36.999 14.0929-9.397-2.2337-20.9299-9.9564-29.7248-18.9-4.4186-4.4933-8.0324-9.1821-10.2855-13.4641-2.3022-4.3751-2.9607-7.8937-2.225-10.2928 1.1596-3.7813 5.1937-6.1454 12.1718-6.1223 6.3483.0209 14.4193 2.0907 22.7348 6.1822Zm3.9997 2.159c1.3822.8418 3.073 1.9892 4.6116 3.3587 2.5108 2.2348 4.1139 4.6134 4.1139 6.8626 0 1.7506-.5552 2.9606-1.3209 3.8063-.7931.8759-1.9334 1.4903-3.2615 1.7885-1.3313.2989-2.7466.2538-3.9607-.0859-1.2299-.3441-2.0822-.9367-2.5306-1.5738-.7244-1.0295-1.1168-1.8523-1.2806-2.7152-.1641-.8642-.1359-1.9678.3051-3.5973.5255-1.9423 1.5758-4.4299 3.3237-7.8439ZM122.858 125.855c6.65 6.28 8.899 17.542 3.204 35.425-5.498 17.269-17.873 30.645-31.4524 39.82-13.5541 9.157-28.5509 14.294-39.6172 14.883l-.3145.017-.3073-.069c-10.6445-2.407-23.0717-10.866-32.268-20.217-4.6246-4.703-8.547-9.746-11.0667-14.534-2.4708-4.696-3.8219-9.587-2.548-13.741 2.0558-6.704 8.8563-9.359 16.5306-9.334 7.2434.024 16.0477 2.36 24.858 6.715.9039-1.644 1.9112-3.426 3.0263-5.363 5.1003-8.858 12.1597-17.619 20.1296-24.614 7.9485-6.977 16.9512-12.328 25.9553-14.129 7.5583-1.512 17.3863-.983 23.8703 5.141Zm-75.1197 42.976c-1.8661 3.64-3.077 6.478-3.7098 8.816-.5639 2.084-.7104 3.908-.383 5.632.3276 1.725 1.093 3.153 2.0287 4.482 1.2117 1.722 3.0899 2.794 5.0219 3.335 1.9477.545 4.1258.604 6.1802.143 2.0577-.462 4.0957-1.472 5.6344-3.172 1.5661-1.73 2.4963-4.045 2.4963-6.856 0-4.294-2.9108-7.83-5.6366-10.256-1.8736-1.668-3.9006-3.024-5.4925-3.981.8718-1.585 1.856-3.328 2.9624-5.25 4.8605-8.442 11.6064-16.811 19.1894-23.467 7.6043-6.675 15.902-11.498 23.8491-13.088 6.9452-1.389 14.9422-.655 19.8602 3.989 4.753 4.489 7.484 13.502 1.994 30.744-5.104 16.029-16.67 28.652-29.667 37.433-12.8865 8.707-26.941 13.474-36.999 14.093-9.397-2.234-20.9299-9.956-29.7248-18.9-4.4186-4.493-8.0324-9.182-10.2855-13.464-2.3022-4.375-2.9607-7.894-2.225-10.293 1.1596-3.781 5.1937-6.145 12.1718-6.122 6.3483.021 14.4193 2.09 22.7348 6.182Zm3.9997 2.159c1.3822.842 3.073 1.989 4.6116 3.359 2.5108 2.235 4.1139 4.613 4.1139 6.862 0 1.751-.5552 2.961-1.3209 3.807-.7931.876-1.9334 1.49-3.2615 1.788-1.3313.299-2.7466.254-3.9607-.086-1.2299-.344-2.0822-.936-2.5306-1.574-.7244-1.029-1.1168-1.852-1.2806-2.715-.1641-.864-.1359-1.968.3051-3.597.5255-1.942 1.5758-4.43 3.3237-7.844ZM259.858 13.855c6.65 6.2799 8.899 17.5418 3.204 35.425-5.498 17.2694-17.873 30.6455-31.452 39.8199-13.554 9.1575-28.551 14.2941-39.618 14.8831l-.314.017-.307-.069c-10.645-2.407-23.072-10.8656-32.268-20.2173-4.625-4.7028-8.547-9.7454-11.067-14.534-2.471-4.6955-3.822-9.5868-2.548-13.7407 2.056-6.7038 8.856-9.359 16.531-9.3337 7.243.0239 16.047 2.3595 24.857 6.7143.904-1.6441 1.912-3.4256 3.027-5.3624 5.1-8.8583 12.16-17.6187 20.129-24.6145 7.949-6.977 16.952-12.3278 25.956-14.1288 7.558-1.5117 17.386-.9832 23.87 5.1411Zm-75.12 42.976c-1.866 3.6401-3.077 6.4776-3.709 8.8161-.564 2.0839-.711 3.9075-.384 5.6317.328 1.7256 1.094 3.1527 2.029 4.4823 1.212 1.722 3.09 2.794 5.022 3.3346 1.948.5449 4.126.6048 6.18.1435 2.058-.4619 4.096-1.4727 5.635-3.1721 1.566-1.7298 2.496-4.0454 2.496-6.8558 0-4.2946-2.911-7.8303-5.637-10.2565-1.873-1.6676-3.9-3.0239-5.492-3.9805.872-1.5856 1.856-3.3284 2.962-5.25 4.861-8.4419 11.607-16.8108 19.19-23.467 7.604-6.6749 15.902-11.4986 23.849-13.0881 6.945-1.3892 14.942-.6555 19.86 3.989 4.753 4.4887 7.484 13.5019 1.994 30.7433-5.104 16.0299-16.67 28.6525-29.667 37.4336-12.886 8.7065-26.941 13.4742-36.999 14.0929-9.397-2.2337-20.93-9.9564-29.725-18.9-4.418-4.4933-8.032-9.1821-10.285-13.4641-2.302-4.3751-2.961-7.8937-2.225-10.2928 1.159-3.7813 5.193-6.1454 12.172-6.1223 6.348.0209 14.419 2.0907 22.734 6.1822Zm4 2.159c1.382.8418 3.073 1.9892 4.612 3.3587 2.51 2.2348 4.113 4.6134 4.113 6.8626 0 1.7506-.555 2.9606-1.32 3.8063-.793.8759-1.934 1.4903-3.262 1.7885-1.331.2989-2.746.2538-3.961-.0859-1.229-.3441-2.082-.9367-2.53-1.5738-.725-1.0295-1.117-1.8523-1.281-2.7152-.164-.8642-.136-1.9678.305-3.5973.526-1.9423 1.576-4.4299 3.324-7.8439ZM259.858 125.855c6.65 6.28 8.899 17.542 3.204 35.425-5.498 17.269-17.873 30.645-31.452 39.82-13.554 9.157-28.551 14.294-39.618 14.883l-.314.017-.307-.069c-10.645-2.407-23.072-10.866-32.268-20.217-4.625-4.703-8.547-9.746-11.067-14.534-2.471-4.696-3.822-9.587-2.548-13.741 2.056-6.704 8.856-9.359 16.531-9.334 7.243.024 16.047 2.36 24.857 6.715.904-1.644 1.912-3.426 3.027-5.363 5.1-8.858 12.16-17.619 20.129-24.614 7.949-6.977 16.952-12.328 25.956-14.129 7.558-1.512 17.386-.983 23.87 5.141Zm-75.12 42.976c-1.866 3.64-3.077 6.478-3.709 8.816-.564 2.084-.711 3.908-.384 5.632.328 1.725 1.094 3.153 2.029 4.482 1.212 1.722 3.09 2.794 5.022 3.335 1.948.545 4.126.604 6.18.143 2.058-.462 4.096-1.472 5.635-3.172 1.566-1.73 2.496-4.045 2.496-6.856 0-4.294-2.911-7.83-5.637-10.256-1.873-1.668-3.9-3.024-5.492-3.981.872-1.585 1.856-3.328 2.962-5.25 4.861-8.442 11.607-16.811 19.19-23.467 7.604-6.675 15.902-11.498 23.849-13.088 6.945-1.389 14.942-.655 19.86 3.989 4.753 4.489 7.484 13.502 1.994 30.744-5.104 16.029-16.67 28.652-29.667 37.433-12.886 8.707-26.941 13.474-36.999 14.093-9.397-2.234-20.93-9.956-29.725-18.9-4.418-4.493-8.032-9.182-10.285-13.464-2.302-4.375-2.961-7.894-2.225-10.293 1.159-3.781 5.193-6.145 12.172-6.122 6.348.021 14.419 2.09 22.734 6.182Zm4 2.159c1.382.842 3.073 1.989 4.612 3.359 2.51 2.235 4.113 4.613 4.113 6.862 0 1.751-.555 2.961-1.32 3.807-.793.876-1.934 1.49-3.262 1.788-1.331.299-2.746.254-3.961-.086-1.229-.344-2.082-.936-2.53-1.574-.725-1.029-1.117-1.852-1.281-2.715-.164-.864-.136-1.968.305-3.597.526-1.942 1.576-4.43 3.324-7.844Z" clip-rule="evenodd"/>
</svg>
