<svg xmlns="http://www.w3.org/2000/svg" width="500" height="500" fill="none" viewBox="0 0 500 500">
  <path fill="#FAFAFA" d="M0 0h500v500H0z"/>
  <path fill="#262626" fill-rule="evenodd" d="M132.441 121.31c-40.0471-12.815-65.2667-7.754-79.3296 7.21-13.7144 14.594-14.8979 36.71-11.5126 53.719 4.0329 20.263 16.0153 40.523 31.6393 58.411 15.6661 17.935 35.2839 33.822 55.1209 45.3 4.337 2.509 8.327 4.776 12.008 6.81-9.752 19.827-14.982 39.641-15.035 55.941-.057 17.271 5.889 32.575 20.901 37.201 9.302 2.867 20.255-.173 30.77-5.734 10.724-5.67 22.016-14.497 32.547-24.905 16.716-16.519 32.158-37.671 40.45-57.718 8.292 20.047 23.734 41.199 40.45 57.718 10.531 10.408 21.823 19.235 32.547 24.905 10.515 5.561 21.468 8.601 30.77 5.734 15.012-4.626 20.958-19.93 20.902-37.201-.054-16.3-5.284-36.114-15.036-55.941 3.682-2.034 7.671-4.301 12.008-6.81 19.837-11.478 39.455-27.365 55.121-45.3 15.624-17.888 27.606-38.148 31.639-58.411 3.386-17.009 2.202-39.125-11.512-53.719-14.063-14.964-39.283-20.025-79.33-7.21-38.672 12.374-68.626 40.223-89.171 70.782-13.443 19.995-23.016 41.385-28.388 60.764-5.372-19.379-14.945-40.769-28.388-60.764-20.545-30.559-50.499-58.408-89.171-70.782Zm36.652 184.611c-5.237-1.424-11.591-4.149-19.743-8.349-9.162 18.714-13.797 36.877-13.844 51.163-.052 15.704 5.242 24.782 13.71 27.392 5.373 1.656 13.252.174 23.049-5.007 9.589-5.071 20.089-13.203 30.151-23.147 20.028-19.792 37.322-45.746 42.324-66.893-1.385-22.635-12.062-54.264-31.559-83.264-19.664-29.249-47.93-55.277-83.827-66.764-38.6099-12.354-58.7936-6.207-68.8455 4.489-10.4006 11.067-12.0438 29.063-8.9328 44.693 3.5595 17.884 14.3615 36.558 29.309 53.671 14.9055 17.064 33.6463 32.246 52.5513 43.184 4.303 2.49 8.206 4.705 11.756 6.667 2.143-3.583 5.18-8.145 8.914-12.361 5.433-6.134 13.351-12.685 22.968-12.685 6.294 0 11.479 2.094 15.353 5.618 3.805 3.463 6.069 8.049 7.103 12.68 1.033 4.623.899 9.525-.321 13.908-1.211 4.348-3.611 8.574-7.467 11.301-2.978 2.106-6.174 3.828-10.038 4.566-3.861.737-7.945.407-12.611-.862Zm-7.387-27.728c-3.067 3.463-5.636 7.268-7.521 10.378 7.645 3.934 13.216 6.297 17.565 7.48 3.649.992 6.121 1.056 8.056.687 1.932-.369 3.775-1.252 6.08-2.882 1.427-1.009 2.754-2.928 3.525-5.695.76-2.733.861-5.917.192-8.913-.668-2.989-2.044-5.556-4.005-7.34-1.894-1.723-4.604-2.973-8.524-2.973-5.037 0-10.363 3.608-15.368 9.258Zm169.201 27.728c5.237-1.424 11.591-4.149 19.743-8.349 9.162 18.714 13.797 36.877 13.844 51.163.052 15.704-5.242 24.782-13.71 27.392-5.372 1.656-13.252.174-23.049-5.007-9.589-5.071-20.089-13.203-30.151-23.147-20.028-19.792-37.322-45.746-42.324-66.893 1.385-22.635 12.062-54.264 31.559-83.264 19.664-29.249 47.93-55.277 83.827-66.764 38.61-12.354 58.794-6.207 68.846 4.489 10.4 11.067 12.043 29.063 8.932 44.693-3.559 17.884-14.361 36.558-29.309 53.671-14.905 17.064-33.646 32.246-52.551 43.184-4.303 2.49-8.206 4.705-11.756 6.667-2.143-3.583-5.18-8.145-8.914-12.361-5.433-6.134-13.351-12.685-22.968-12.685-6.294 0-11.479 2.094-15.353 5.618-3.805 3.463-6.069 8.049-7.103 12.68-1.033 4.623-.899 9.525.321 13.908 1.211 4.348 3.611 8.574 7.467 11.301 2.978 2.106 6.174 3.828 10.038 4.566 3.861.737 7.945.407 12.611-.862Zm7.387-27.728c3.067 3.463 5.636 7.268 7.521 10.378-7.645 3.934-13.216 6.297-17.565 7.48-3.649.992-6.121 1.056-8.056.687-1.932-.369-3.775-1.252-6.08-2.882-1.427-1.009-2.754-2.928-3.525-5.695-.76-2.733-.861-5.917-.192-8.913.668-2.989 2.044-5.556 4.005-7.34 1.894-1.723 4.604-2.973 8.524-2.973 5.037 0 10.363 3.608 15.368 9.258Z" clip-rule="evenodd"/>
</svg>
