<svg xmlns="http://www.w3.org/2000/svg" width="48" height="48" fill="none" viewBox="0 0 48 48">
  <style>path {fill: #262626;} @media (prefers-color-scheme: dark) {path {fill: #ffffff;}}</style>
  <path fill="#262626" fill-rule="evenodd" d="M2.9048 10.5513c1.5067-1.5987 4.2088-2.1394 8.4996-.7704 4.1434 1.3221 7.3528 4.2974 9.554 7.5622 1.4403 2.1362 2.466 4.4215 3.0416 6.4919.5756-2.0704 1.6013-4.3557 3.0416-6.4919 2.2012-3.2648 5.4106-6.2401 9.554-7.5622 4.2908-1.369 6.9929-.8283 8.4996.7704 1.4694 1.5591 1.5962 3.922 1.2335 5.7392-.4321 2.1649-1.7159 4.3294-3.3899 6.2405-1.6785 1.9162-3.7804 3.6134-5.9058 4.8397a75.6126 75.6126 0 0 1-1.2866.7276c1.0448 2.1183 1.6052 4.2351 1.6109 5.9766.0061 1.8452-.631 3.4802-2.2394 3.9745-.9967.3063-2.1702-.0186-3.2968-.6126-1.149-.6058-2.3588-1.5489-3.4872-2.6608-1.791-1.7649-3.4455-4.0247-4.3339-6.1665-.8884 2.1418-2.5429 4.4016-4.3339 6.1665-1.1284 1.1119-2.3382 2.055-3.4872 2.6608-1.1266.594-2.3001.9189-3.2968.6126-1.6084-.4943-2.2455-2.1293-2.2394-3.9745.0057-1.7415.5661-3.8583 1.6109-5.9766a75.6126 75.6126 0 0 1-1.2866-.7276c-2.1254-1.2263-4.2273-2.9235-5.9058-4.8397-1.674-1.9111-2.9578-4.0756-3.3899-6.2405-.3627-1.8172-.2359-4.1801 1.2335-5.7392ZM13.734 27.6508c.202-.3324.4773-.7389.8059-1.1088.5362-.6037 1.1069-.9891 1.6465-.9891.42 0 .7104.1335.9133.3176.2101.1907.3575.4648.4291.7841.0717.3201.0609.6604-.0206.9523-.0826.2957-.2248.5006-.3776.6084-.2471.1742-.4445.2685-.6515.3079-.2074.0395-.4721.0327-.8631-.0733-.466-.1264-1.0629-.3789-1.882-.7991Zm20.5318 0c-.202-.3324-.4773-.7389-.8059-1.1088-.5362-.6037-1.1069-.9891-1.6465-.9891-.42 0-.7104.1335-.9133.3176-.2101.1907-.3575.4648-.4291.7841-.0717.3201-.0609.6604.0206.9523.0826.2957.2248.5006.3776.6084.2471.1742.4445.2685.6515.3079.2074.0395.4721.0327.8631-.0733.466-.1264 1.0629-.3789 1.882-.7991Z" clip-rule="evenodd"/>
</svg>
