<svg xmlns="http://www.w3.org/2000/svg" width="32" height="32" fill="none" viewBox="0 0 32 32">
  <style>path {fill: #262626;} @media (prefers-color-scheme: dark) {path {fill: #ffffff;}}</style>
  <path d="M4.5 7.5H7l1.5.5 1.5.5 1 1 2 1.5 1.5 2.5 1 2.5.5 2-.5 1-2 3.5-2 1.5-1 .5H9l-.5-.5v-1L8 22l.5-1.5.5-1 .5-1 1 .5 1 .5.5-.5.5-1v-.5l-1-.5H11l-1 .5-1 1-1.5-1-2.5-2-1.5-2L3 12l-.5-1.5.5-2 1.5-1ZM27.5 7.5H25l-1.5.5-1.5.5-1 1-2 1.5-1.5 2.5-1 2.5-.5 2 .5 1 2 3.5 2 1.5 1 .5H23l.5-.5v-1l.5-1-.5-1.5-.5-1-.5-1-1 .5-1 .5-.5-.5-.5-1v-.5l1-.5h.5l1 .5 1 1 1.5-1 2.5-2 1.5-2L29 12l.5-1.5-.5-2-1.5-1Z"/>
  <path fill-rule="evenodd" d="M8.323 7.6186c-2.6152-.8345-4.2622-.505-5.1806.4696-.8956.9503-.973 2.3905-.7519 3.4981.2634 1.3196 1.046 2.6389 2.0663 3.8037 1.023 1.168 2.3042 2.2025 3.5997 2.95.2833.1634.5438.311.7842.4435-.6368 1.2911-.9784 2.5813-.9819 3.6428-.0037 1.1247.3846 2.1213 1.365 2.4226.6075.1867 1.3228-.0113 2.0095-.3734.7003-.3693 1.4377-.9441 2.1255-1.6218 1.0917-1.0758 2.1001-2.4532 2.6416-3.7586.5415 1.3054 1.55 2.6828 2.6416 3.7586.6878.6777 1.4252 1.2525 2.1255 1.6218.6867.3621 1.402.5601 2.0095.3734.9804-.3013 1.3687-1.2979 1.365-2.4226-.0035-1.0615-.345-2.3517-.9819-3.6428a46.341 46.341 0 0 0 .7842-.4435c1.2955-.7475 2.5767-1.782 3.5998-2.95 1.0203-1.1648 1.8028-2.4841 2.0662-3.8037.2211-1.1076.1438-2.5478-.7518-3.4981-.9184-.9745-2.5654-1.3041-5.1808-.4696-2.5255.8058-4.4817 2.6193-5.8234 4.6093-.8779 1.3021-1.503 2.695-1.8539 3.957-.3508-1.262-.976-2.6549-1.8539-3.957-1.3417-1.99-3.2979-3.8035-5.8234-4.6093Zm2.3937 12.0219c-.342-.0928-.757-.2702-1.2893-.5437-.5984 1.2186-.901 2.4014-.9041 3.3317-.0034 1.0227.3423 1.6139.8953 1.7838.3509.1078.8654.0113 1.5053-.3261.6262-.3302 1.3119-.8598 1.969-1.5073 1.308-1.2889 2.4374-2.979 2.764-4.3561-.0905-1.474-.7877-3.5336-2.061-5.4221-1.2842-1.9047-3.1301-3.5997-5.4744-4.3477-2.5215-.8045-3.8396-.4042-4.496.2923-.6793.7207-.7866 1.8926-.5834 2.9104.2325 1.1647.9379 2.3807 1.914 3.4951.9735 1.1112 2.1974 2.0998 3.432 2.8121.281.1622.5358.3064.7677.4342.14-.2333.3383-.5304.5822-.8049.3548-.3995.8719-.8261 1.4999-.8261.411 0 .7497.1363 1.0026.3659.2486.2254.3964.5241.4639.8257.0675.301.0587.6202-.021.9057-.079.2831-.2358.5583-.4876.7359-.1945.1371-.4032.2493-.6555.2973-.2522.048-.5189.0265-.8236-.0561Zm-.4824-1.8057c-.2003.2255-.368.4733-.4912.6759.4993.2561.8631.41 1.1471.487.2383.0647.3997.0688.5261.0448.1262-.0241.2465-.0815.3971-.1877.0932-.0657.1798-.1906.2302-.3709.0496-.1779.0562-.3853.0125-.5804-.0436-.1946-.1334-.3617-.2615-.478-.1237-.1122-.3007-.1935-.5567-.1935-.3289 0-.6768.2349-1.0036.6028Zm11.0499 1.8057c.342-.0928.7569-.2702 1.2893-.5437.5983 1.2186.901 2.4014.9041 3.3317.0033 1.0227-.3424 1.6139-.8954 1.7838-.3508.1078-.8654.0113-1.5052-.3261-.6262-.3302-1.312-.8598-1.9691-1.5073-1.3079-1.2889-2.4373-2.979-2.764-4.3561.0905-1.474.7877-3.5336 2.061-5.4221 1.2842-1.9047 3.1302-3.5997 5.4744-4.3477 2.5215-.8045 3.8396-.4042 4.4961.2923.6792.7207.7865 1.8926.5833 2.9104-.2324 1.1647-.9379 2.3807-1.914 3.4951-.9734 1.1112-2.1973 2.0998-3.4319 2.8121-.281.1622-.5359.3064-.7678.4342-.1399-.2333-.3382-.5304-.5821-.8049-.3548-.3995-.8719-.8261-1.5-.8261-.411 0-.7496.1363-1.0026.3659-.2485.2254-.3963.5241-.4639.8257-.0675.301-.0587.6202.021.9057.0791.2831.2358.5583.4876.7359.1945.1371.4032.2493.6556.2973.2521.048.5188.0265.8236-.0561Zm.4823-1.8057c.2003.2255.3681.4733.4912.6759-.4992.2561-.863.41-1.1471.487-.2383.0647-.3997.0688-.5261.0448-.1262-.0241-.2465-.0815-.3971-.1877-.0931-.0657-.1798-.1906-.2301-.3709-.0497-.1779-.0563-.3853-.0126-.5804.0436-.1946.1335-.3617.2616-.478.1236-.1122.3006-.1935.5566-.1935.329 0 .6768.2349 1.0036.6028Z" clip-rule="evenodd"/>
</svg>
