<svg xmlns="http://www.w3.org/2000/svg" width="500" height="500" fill="none" viewBox="0 0 500 500">
  <style>path {fill: #262626;} @media (prefers-color-scheme: dark) {path {fill: #ffffff;}}</style>
  <path fill-rule="evenodd" d="M130.042 119.045c-40.8645-13.039-66.5987-7.889-80.9487 7.337-13.9942 14.849-15.2019 37.352-11.7475 54.659 4.1152 20.618 16.3421 41.232 32.285 59.433 15.9858 18.249 36.0042 34.414 56.2462 46.093 4.425 2.553 8.496 4.859 12.253 6.929-9.951 20.174-15.288 40.334-15.343 56.92-.058 17.573 6.01 33.145 21.328 37.852 9.492 2.917 20.669-.177 31.399-5.834 10.942-5.77 22.465-14.751 33.211-25.341 17.057-16.808 32.814-38.331 41.275-58.728 8.461 20.397 24.218 41.92 41.275 58.728 10.747 10.59 22.269 19.571 33.212 25.341 10.729 5.657 21.906 8.751 31.398 5.834 15.318-4.707 21.386-20.279 21.328-37.852-.055-16.586-5.392-36.746-15.343-56.92 3.757-2.07 7.828-4.376 12.254-6.929 20.241-11.679 40.26-27.844 56.245-46.093 15.943-18.201 28.17-38.815 32.285-59.433 3.455-17.307 2.247-39.81-11.747-54.659-14.35-15.226-40.084-20.376-80.949-7.337-39.461 12.591-70.026 40.927-90.99 72.021-13.717 20.345-23.486 42.109-28.968 61.827-5.482-19.718-15.25-41.482-28.967-61.827-20.965-31.094-51.53-59.43-90.991-72.021Zm37.4 187.842c-5.344-1.449-11.828-4.222-20.146-8.495-9.349 19.041-14.079 37.522-14.127 52.059-.052 15.978 5.35 25.215 13.99 27.871 5.482 1.684 13.523.177 23.52-5.095 9.785-5.159 20.499-13.434 30.766-23.552 20.437-20.138 38.084-46.547 43.188-68.064-1.414-23.031-12.308-55.213-32.203-84.721-20.065-29.761-48.909-56.244-85.538-67.932-39.398-12.571-59.9935-6.316-70.2506 4.567-10.6129 11.261-12.2896 29.572-9.1151 45.476 3.6321 18.197 14.6545 37.197 29.9071 54.61 15.2097 17.363 34.3336 32.81 53.6236 43.939 4.391 2.534 8.373 4.788 11.996 6.784 2.186-3.645 5.286-8.287 9.096-12.577 5.544-6.242 13.624-12.907 23.437-12.907 6.422 0 11.713 2.13 15.666 5.716 3.883 3.524 6.193 8.19 7.248 12.902 1.054 4.704.918 9.692-.328 14.152-1.235 4.424-3.684 8.724-7.619 11.499-3.039 2.142-6.3 3.895-10.243 4.645-3.94.75-8.107.414-12.868-.877Zm-7.538-28.213c-3.129 3.523-5.751 7.395-7.674 10.56 7.801 4.002 13.485 6.407 17.923 7.61 3.724 1.01 6.246 1.075 8.221.699 1.971-.375 3.851-1.273 6.204-2.932 1.456-1.027 2.81-2.979 3.596-5.795.776-2.78.879-6.021.196-9.069-.681-3.041-2.085-5.652-4.086-7.468-1.933-1.754-4.698-3.025-8.698-3.025-5.14 0-10.575 3.671-15.682 9.42Zm172.655 28.213c5.343-1.449 11.827-4.222 20.145-8.495 9.349 19.041 14.079 37.522 14.127 52.059.052 15.978-5.35 25.215-13.99 27.871-5.482 1.684-13.522.177-23.52-5.095-9.784-5.159-20.499-13.434-30.766-23.552-20.437-20.138-38.084-46.547-43.188-68.064 1.414-23.031 12.309-55.213 32.203-84.721 20.066-29.761 48.909-56.244 85.538-67.932 39.398-12.571 59.994-6.316 70.251 4.567 10.613 11.261 12.289 29.572 9.115 45.476-3.632 18.197-14.655 37.197-29.907 54.61-15.21 17.363-34.334 32.81-53.624 43.939-4.391 2.534-8.373 4.788-11.996 6.784-2.186-3.645-5.285-8.287-9.096-12.577-5.544-6.242-13.623-12.907-23.437-12.907-6.422 0-11.713 2.13-15.666 5.716-3.883 3.524-6.193 8.19-7.248 12.902-1.054 4.704-.917 9.692.328 14.152 1.235 4.424 3.685 8.724 7.619 11.499 3.039 2.142 6.3 3.895 10.243 4.645 3.94.75 8.107.414 12.869-.877Zm7.537-28.213c3.129 3.523 5.751 7.395 7.674 10.56-7.801 4.002-13.485 6.407-17.923 7.61-3.724 1.01-6.245 1.075-8.22.699-1.972-.375-3.852-1.273-6.205-2.932-1.456-1.027-2.81-2.979-3.596-5.795-.776-2.78-.879-6.021-.196-9.069.681-3.041 2.085-5.652 4.087-7.468 1.932-1.754 4.697-3.025 8.697-3.025 5.14 0 10.575 3.671 15.682 9.42Z" clip-rule="evenodd"/>
</svg>
